<svg xmlns="http://www.w3.org/2000/svg" version="1.1" xmlns:xlink="http://www.w3.org/1999/xlink" xmlns:svgjs="http://svgjs.dev/svgjs" width="1500" height="1500" viewBox="0 0 1500 1500"><rect width="1500" height="1500" fill="#ffffff"></rect><g transform="matrix(0.6666666666666666,0,0,0.6666666666666666,249.39393939393938,634.4391087817719)"><svg viewBox="0 0 396 92" data-background-color="#ffffff" preserveAspectRatio="xMidYMid meet" height="348" width="1500" xmlns="http://www.w3.org/2000/svg" xmlns:xlink="http://www.w3.org/1999/xlink"><g id="tight-bounds" transform="matrix(1,0,0,1,0.2400000000000091,-0.17412934449572504)"><svg viewBox="0 0 395.52 92.34825868899144" height="92.34825868899144" width="395.52"><g><svg viewBox="0 0 395.52 92.34825868899144" height="92.34825868899144" width="395.52"><g transform="matrix(1,0,0,1,0,55.54627246025842)"><svg viewBox="0 0 395.52 36.801986228733014" height="36.801986228733014" width="395.52"><g id="textblocktransform"><svg viewBox="0 0 395.52 36.801986228733014" height="36.801986228733014" width="395.52" id="textblock"><g><svg viewBox="0 0 395.52 19.849232840904588" height="19.849232840904588" width="395.52"><g transform="matrix(1,0,0,1,0,0)"><svg width="395.52" viewBox="1.4 -35.6 721.34 36.2" height="19.849232840904588" data-palette-color="#006f42"><path d="M18.4 0L14.1 0 1.4-35 6.4-35 7.1-32.1 15.2-8.5 16-4.2 16.5-4.2 17.3-8.5 25.4-32.1 26.1-35 31.1-35 18.4 0ZM45.45 0L41.2 0 41.2-35 45.45-35 45.45 0ZM50.15 0L36.5 0 36.5-4.1 39.5-3.6 47.15-3.6 50.15-4.1 50.15 0ZM39.5-31.4L36.5-30.9 36.5-35 50.15-35 50.15-30.9 47.15-31.4 39.5-31.4ZM87.65 0L82.4 0 82.9-4 82.9-31 82.4-35 87.65-35 87.15-31 87.15-4 87.65 0ZM63.9 0L58.65 0 59.15-4 59.15-31 58.65-35 63.9-35 63.4-31 63.4-4 63.9 0ZM85.7-16.35L60.55-16.35 60.55-20.25 85.7-20.25 85.7-16.35ZM105.09 0L100.84 0 100.84-35 105.09-35 105.09 0ZM109.79 0L96.14 0 96.14-4.1 99.14-3.6 106.79-3.6 109.79-4.1 109.79 0ZM99.14-31.4L96.14-30.9 96.14-35 109.79-35 109.79-30.9 106.79-31.4 99.14-31.4ZM135.44 0.6L135.44 0.6Q126.39 0.6 121.64-4.13 116.89-8.85 116.89-17.6L116.89-17.6Q116.89-24 119.27-27.98 121.64-31.95 125.69-33.77 129.74-35.6 134.79-35.6L134.79-35.6Q137.94-35.6 140.44-34.98 142.94-34.35 145.19-33.1L145.19-33.1 145.19-29.2 144.19-28.7Q142.34-30.15 140.09-30.98 137.84-31.8 134.54-31.8L134.54-31.8Q130.69-31.8 127.72-30.4 124.74-29 123.07-25.85 121.39-22.7 121.39-17.4L121.39-17.4Q121.39-10.4 124.74-6.8 128.09-3.2 135.29-3.2L135.29-3.2Q138.19-3.2 140.49-3.88 142.79-4.55 144.84-6.35L144.84-6.35 146.24-5.35 146.24-1.5Q144.04-0.55 141.42 0.03 138.79 0.6 135.44 0.6ZM146.24-1.5L141.99-1.5 141.99-16.9 146.24-16.9 146.24-1.5ZM136.44-15.05L133.44-14.55 133.44-18.75 146.24-18.75 146.24-15.05 136.44-15.05ZM155.54 0L150.74 0 163.99-35 168.79-35 182.04 0 177.24 0 176.04-4 167.04-28.7 166.59-31.9 166.19-31.9 165.74-28.7 156.74-4 155.54 0ZM175.84-10.1L156.84-10.1 156.84-14 175.84-14 175.84-10.1ZM218.38-29.25L217.88-29.25 216.98-24.95 209.83 0 205.23 0 196.23-35 201.13-35 201.58-32.1 206.93-9.6 207.43-5.1 207.93-5.1 208.53-9.6 215.73-34.5 220.43-34.5 227.68-9.6 228.28-5.1 228.78-5.1 229.28-9.6 234.58-32.1 235.03-35 239.93-35 230.98 0 226.38 0 219.23-24.95 218.38-29.25ZM259.78 0.6L259.78 0.6Q256.78 0.6 253.88-0.35 250.98-1.3 248.68-3.38 246.38-5.45 245.01-8.9 243.63-12.35 243.63-17.35L243.63-17.35Q243.63-22.4 245.01-25.9 246.38-29.4 248.68-31.53 250.98-33.65 253.88-34.63 256.78-35.6 259.78-35.6L259.78-35.6Q262.78-35.6 265.68-34.63 268.58-33.65 270.88-31.53 273.18-29.4 274.56-25.9 275.93-22.4 275.93-17.35L275.93-17.35Q275.93-12.35 274.56-8.9 273.18-5.45 270.88-3.38 268.58-1.3 265.71-0.35 262.83 0.6 259.78 0.6ZM259.73-3.2L259.73-3.2Q262.93-3.2 265.58-4.6 268.23-6 269.83-9.13 271.43-12.25 271.43-17.5L271.43-17.5Q271.43-22.7 269.86-25.85 268.28-29 265.63-30.4 262.98-31.8 259.78-31.8L259.78-31.8Q256.58-31.8 253.93-30.4 251.28-29 249.71-25.85 248.13-22.7 248.13-17.5L248.13-17.5Q248.13-12.3 249.71-9.15 251.28-6 253.91-4.6 256.53-3.2 259.73-3.2ZM288.78 0L283.53 0 284.03-4 284.03-35 291.28-35 301.03-8.35 301.78-5.25 302.18-5.25 302.93-8.35 312.68-35 319.93-35 319.93-4 320.43 0 315.18 0 315.68-4 315.68-30.85 315.08-30.85 313.58-25.2 304.23-0.5 299.73-0.5 290.38-25.2 288.88-30.85 288.28-30.85 288.28-4 288.78 0ZM349.88 0L329.43 0 329.93-4 329.93-31 329.43-35 349.88-35 349.88-30.6 346.88-31.1 334.18-31.1 334.18-19.65 348.32-19.65 348.32-15.55 345.32-15.95 334.18-15.95 334.18-3.9 346.88-3.9 349.88-4.4 349.88 0ZM363.02 0L357.77 0 358.27-4 358.27-35 363.27-35 380.07-9.8 382.02-4.9 382.42-4.9 382.42-31 381.92-35 387.17-35 386.67-31 386.67 0 381.67 0 364.87-25.2 362.92-30.05 362.52-30.05 362.52-4 363.02 0ZM417.72 0L413.47 0 413.47-35 417.72-35 417.72 0ZM422.42 0L408.77 0 408.77-4.1 411.77-3.6 419.42-3.6 422.42-4.1 422.42 0ZM411.77-31.4L408.77-30.9 408.77-35 422.42-35 422.42-30.9 419.42-31.4 411.77-31.4ZM436.17 0L430.92 0 431.42-4 431.42-35 436.42-35 453.22-9.8 455.17-4.9 455.56-4.9 455.56-31 455.06-35 460.31-35 459.81-31 459.81 0 454.81 0 438.02-25.2 436.06-30.05 435.67-30.05 435.67-4 436.17 0ZM496.46 0L482.41 0 482.91-4 482.91-31 482.41-35 495.46-35Q500.51-35 503.49-32.6 506.46-30.2 506.46-25.75L506.46-25.75Q506.46-23.25 505.26-21.38 504.06-19.5 500.96-18.45L500.96-18.45 500.96-18.15Q503.86-17.55 505.84-15.43 507.81-13.3 507.81-9.4L507.81-9.4Q507.81-6.15 506.36-4.05 504.91-1.95 502.36-0.98 499.81 0 496.46 0L496.46 0ZM487.16-16.1L487.16-3.8 496.01-3.8Q499.31-3.8 501.31-5.03 503.31-6.25 503.31-9.75L503.31-9.75Q503.31-13.25 501.36-14.68 499.41-16.1 496.16-16.1L496.16-16.1 487.16-16.1ZM487.16-31.2L487.16-19.9 495.86-19.9Q498.51-19.9 500.29-21.28 502.06-22.65 502.06-25.85L502.06-25.85Q502.06-28.9 500.29-30.05 498.51-31.2 495.41-31.2L495.41-31.2 487.16-31.2ZM528.96 0.6L528.96 0.6Q524.06 0.6 520.96-1.23 517.86-3.05 516.38-6.1 514.91-9.15 514.91-12.9L514.91-12.9 514.91-31 514.41-35 519.66-35 519.16-31 519.16-13.1Q519.16-8.7 521.43-6 523.71-3.3 528.96-3.3L528.96-3.3Q534.16-3.3 536.41-6 538.66-8.7 538.66-13.1L538.66-13.1 538.66-31 538.16-35 543.41-35 542.91-31 542.91-12.9Q542.91-9.15 541.43-6.1 539.96-3.05 536.88-1.23 533.81 0.6 528.96 0.6ZM562.15 0.6L562.15 0.6Q559.2 0.65 556.4 0 553.61-0.65 551.4-1.7L551.4-1.7 551.4-5.5 552.4-6Q554.45-4.75 556.63-4.08 558.8-3.4 561.61-3.4L561.61-3.4Q565.36-3.4 567.5-4.7 569.65-6 569.65-8.6L569.65-8.6Q569.65-10.4 568.7-11.63 567.75-12.85 566.15-13.75 564.55-14.65 562.68-15.43 560.8-16.2 558.9-17.07 557-17.95 555.4-19.15 553.8-20.35 552.86-22.1 551.9-23.85 551.9-26.4L551.9-26.4Q551.9-29.65 553.48-31.68 555.05-33.7 557.61-34.65 560.15-35.6 563.05-35.6L563.05-35.6Q565.05-35.6 567.3-35.18 569.55-34.75 571.75-33.8L571.75-33.8 571.75-30 570.75-29.5Q569.05-30.55 567.18-31.08 565.3-31.6 563.36-31.6L563.36-31.6Q561.3-31.6 559.7-31.03 558.11-30.45 557.2-29.33 556.3-28.2 556.3-26.5L556.3-26.5Q556.3-24.75 557.25-23.55 558.2-22.35 559.8-21.48 561.4-20.6 563.3-19.83 565.2-19.05 567.08-18.18 568.95-17.3 570.55-16.07 572.15-14.85 573.11-13.08 574.05-11.3 574.05-8.75L574.05-8.75Q574.05-6.2 573.08-4.42 572.11-2.65 570.43-1.55 568.75-0.45 566.63 0.08 564.5 0.6 562.15 0.6ZM590.5 0L586.25 0 586.25-35 590.5-35 590.5 0ZM595.2 0L581.55 0 581.55-4.1 584.55-3.6 592.2-3.6 595.2-4.1 595.2 0ZM584.55-31.4L581.55-30.9 581.55-35 595.2-35 595.2-30.9 592.2-31.4 584.55-31.4ZM608.95 0L603.7 0 604.2-4 604.2-35 609.2-35 626-9.8 627.95-4.9 628.35-4.9 628.35-31 627.85-35 633.1-35 632.6-31 632.6 0 627.6 0 610.8-25.2 608.85-30.05 608.45-30.05 608.45-4 608.95 0ZM662.55 0L642.1 0 642.6-4 642.6-31 642.1-35 662.55-35 662.55-30.6 659.55-31.1 646.85-31.1 646.85-19.65 661-19.65 661-15.55 658-15.95 646.85-15.95 646.85-3.9 659.55-3.9 662.55-4.4 662.55 0ZM680.69 0.6L680.69 0.6Q677.74 0.65 674.94 0 672.14-0.65 669.94-1.7L669.94-1.7 669.94-5.5 670.94-6Q672.99-4.75 675.17-4.08 677.34-3.4 680.14-3.4L680.14-3.4Q683.89-3.4 686.04-4.7 688.19-6 688.19-8.6L688.19-8.6Q688.19-10.4 687.24-11.63 686.29-12.85 684.69-13.75 683.09-14.65 681.22-15.43 679.34-16.2 677.44-17.07 675.54-17.95 673.94-19.15 672.34-20.35 671.39-22.1 670.44-23.85 670.44-26.4L670.44-26.4Q670.44-29.65 672.02-31.68 673.59-33.7 676.14-34.65 678.69-35.6 681.59-35.6L681.59-35.6Q683.59-35.6 685.84-35.18 688.09-34.75 690.29-33.8L690.29-33.8 690.29-30 689.29-29.5Q687.59-30.55 685.72-31.08 683.84-31.6 681.89-31.6L681.89-31.6Q679.84-31.6 678.24-31.03 676.64-30.45 675.74-29.33 674.84-28.2 674.84-26.5L674.84-26.5Q674.84-24.75 675.79-23.55 676.74-22.35 678.34-21.48 679.94-20.6 681.84-19.83 683.74-19.05 685.62-18.18 687.49-17.3 689.09-16.07 690.69-14.85 691.64-13.08 692.59-11.3 692.59-8.75L692.59-8.75Q692.59-6.2 691.62-4.42 690.64-2.65 688.97-1.55 687.29-0.45 685.17 0.08 683.04 0.6 680.69 0.6ZM710.84 0.6L710.84 0.6Q707.89 0.65 705.09 0 702.29-0.65 700.09-1.7L700.09-1.7 700.09-5.5 701.09-6Q703.14-4.75 705.32-4.08 707.49-3.4 710.29-3.4L710.29-3.4Q714.04-3.4 716.19-4.7 718.34-6 718.34-8.6L718.34-8.6Q718.34-10.4 717.39-11.63 716.44-12.85 714.84-13.75 713.24-14.65 711.37-15.43 709.49-16.2 707.59-17.07 705.69-17.95 704.09-19.15 702.49-20.35 701.54-22.1 700.59-23.85 700.59-26.4L700.59-26.4Q700.59-29.65 702.17-31.68 703.74-33.7 706.29-34.65 708.84-35.6 711.74-35.6L711.74-35.6Q713.74-35.6 715.99-35.18 718.24-34.75 720.44-33.8L720.44-33.8 720.44-30 719.44-29.5Q717.74-30.55 715.87-31.08 713.99-31.6 712.04-31.6L712.04-31.6Q709.99-31.6 708.39-31.03 706.79-30.45 705.89-29.33 704.99-28.2 704.99-26.5L704.99-26.5Q704.99-24.75 705.94-23.55 706.89-22.35 708.49-21.48 710.09-20.6 711.99-19.83 713.89-19.05 715.77-18.18 717.64-17.3 719.24-16.07 720.84-14.85 721.79-13.08 722.74-11.3 722.74-8.75L722.74-8.75Q722.74-6.2 721.77-4.42 720.79-2.65 719.12-1.55 717.44-0.45 715.32 0.08 713.19 0.6 710.84 0.6Z" opacity="1" transform="matrix(1,0,0,1,0,0)" fill="#000000" class="wordmark-text-0" data-fill-palette-color="primary" id="text-0"></path></svg></g></svg></g><g transform="matrix(1,0,0,1,149.33057136385918,24.53516033305398)"><svg viewBox="0 0 96.85885727228165 12.266825895679036" height="12.266825895679036" width="96.85885727228165"><g transform="matrix(1,0,0,1,0,0)"><svg width="96.85885727228165" viewBox="0.5 -38.9 394.77 50" height="12.266825895679036" data-palette-color="#006f42"><path d="M20.7 0L9.2 0 2.6-19.6 0.5-19.6 0.5-27.8 15.95-27.8 15.95-19.6 13.85-19.6 15.65-11.8 16.15-11.8 19.8-27.8 29-27.8 32.65-11.8 33.15-11.8 34.9-19.6 32.8-19.6 32.8-27.8 47.3-27.8 47.3-19.6 45.2-19.6 38.85 0 26.7 0 23.95-13.9 23.45-13.9 20.7 0ZM63.6 0.7Q56.5 0.7 52.5-3.03 48.5-6.75 48.5-13.9L48.5-13.9Q48.5-21.05 52.5-24.78 56.5-28.5 63.6-28.5L63.6-28.5Q70.8-28.5 74.75-24.73 78.7-20.95 78.7-13.9L78.7-13.9Q78.7-6.75 74.7-3.03 70.7 0.7 63.6 0.7L63.6 0.7ZM63.6-8.2Q65.05-8.2 65.77-8.97 66.5-9.75 66.5-11.4L66.5-11.4 66.5-16.4Q66.5-18.05 65.77-18.82 65.05-19.6 63.6-19.6L63.6-19.6Q62.15-19.6 61.42-18.82 60.7-18.05 60.7-16.4L60.7-16.4 60.7-11.4Q60.7-9.75 61.42-8.97 62.15-8.2 63.6-8.2L63.6-8.2ZM128.6-8.2L130.8-8.2 130.8 0 115 0 115-8.2 117.1-8.2 117.1-16.4Q117.1-18.05 116.4-18.82 115.7-19.6 114.3-19.6L114.3-19.6Q111.3-19.6 111.3-16.4L111.3-16.4 111.3-8.2 113.4-8.2 113.4 0 97.7 0 97.7-8.2 99.8-8.2 99.8-16.4Q99.8-18.05 99.1-18.82 98.4-19.6 97-19.6L97-19.6Q94-19.6 94-16.4L94-16.4 94-8.2 96.1-8.2 96.1 0 80.3 0 80.3-8.2 82.5-8.2 82.5-19.6 80.3-19.6 80.3-27.8 94-27.8 94-23.9Q97.6-28.5 103-28.5L103-28.5Q106.05-28.5 107.97-27.08 109.9-25.65 110.7-23.05L110.7-23.05Q112.5-25.65 114.82-27.05 117.15-28.45 120.3-28.45L120.3-28.45Q124.45-28.45 126.52-25.85 128.6-23.25 128.6-18.7L128.6-18.7 128.6-8.2ZM147.29 0.7Q140.19 0.7 136.19-3.03 132.19-6.75 132.19-13.9L132.19-13.9Q132.19-21.05 136.19-24.78 140.19-28.5 147.29-28.5L147.29-28.5Q154.34-28.5 157.47-24.83 160.59-21.15 160.59-15.7L160.59-15.7 160.59-12.1 144.39-12.1 144.39-11.8Q144.39-9.95 145.49-9.08 146.59-8.2 149.14-8.2L149.14-8.2Q152.19-8.2 154.94-8.65 157.69-9.1 159.74-9.8L159.74-9.8 159.74-1.8Q157.99-0.85 154.62-0.08 151.24 0.7 147.29 0.7L147.29 0.7ZM144.39-17.6L150.19-17.6 150.19-18.2Q150.19-19.9 149.47-20.65 148.74-21.4 147.29-21.4L147.29-21.4Q145.84-21.4 145.12-20.63 144.39-19.85 144.39-18.2L144.39-18.2 144.39-17.6ZM193.09-8.2L195.29-8.2 195.29 0 179.49 0 179.49-8.2 181.59-8.2 181.59-16.4Q181.59-18.05 180.89-18.82 180.19-19.6 178.79-19.6L178.79-19.6Q175.79-19.6 175.79-16.4L175.79-16.4 175.79-8.2 177.89-8.2 177.89 0 162.09 0 162.09-8.2 164.29-8.2 164.29-19.6 162.09-19.6 162.09-27.8 175.79-27.8 175.79-23.9Q179.39-28.5 184.79-28.5L184.79-28.5Q188.94-28.5 191.01-25.9 193.09-23.3 193.09-18.75L193.09-18.75 193.09-8.2ZM211.69 11.1L211.69 2.9 213.89 2.9 213.89-19.6 211.69-19.6 211.69-27.8 225.39-27.8 225.39-24.4Q226.64-26 228.61-27.25 230.59-28.5 233.14-28.5L233.14-28.5Q238.24-28.5 240.81-24.7 243.39-20.9 243.39-13.9L243.39-13.9Q243.39-6.9 240.81-3.1 238.24 0.7 233.14 0.7L233.14 0.7Q230.59 0.7 228.61-0.55 226.64-1.8 225.39-3.4L225.39-3.4 225.39 2.9 228.84 2.9 228.84 11.1 211.69 11.1ZM228.29-8.2Q229.74-8.2 230.46-8.97 231.19-9.75 231.19-11.4L231.19-11.4 231.19-16.4Q231.19-18.05 230.46-18.82 229.74-19.6 228.29-19.6L228.29-19.6Q226.84-19.6 226.11-18.82 225.39-18.05 225.39-16.4L225.39-16.4 225.39-11.4Q225.39-9.75 226.11-8.97 226.84-8.2 228.29-8.2L228.29-8.2ZM259.68 0.7Q252.58 0.7 248.58-3.03 244.58-6.75 244.58-13.9L244.58-13.9Q244.58-21.05 248.58-24.78 252.58-28.5 259.68-28.5L259.68-28.5Q266.88-28.5 270.83-24.73 274.78-20.95 274.78-13.9L274.78-13.9Q274.78-6.75 270.78-3.03 266.78 0.7 259.68 0.7L259.68 0.7ZM259.68-8.2Q261.13-8.2 261.86-8.97 262.58-9.75 262.58-11.4L262.58-11.4 262.58-16.4Q262.58-18.05 261.86-18.82 261.13-19.6 259.68-19.6L259.68-19.6Q258.23-19.6 257.51-18.82 256.78-18.05 256.78-16.4L256.78-16.4 256.78-11.4Q256.78-9.75 257.51-8.97 258.23-8.2 259.68-8.2L259.68-8.2ZM296.18 0L284.68 0 278.08-19.6 275.98-19.6 275.98-27.8 291.43-27.8 291.43-19.6 289.33-19.6 291.13-11.8 291.63-11.8 295.28-27.8 304.48-27.8 308.13-11.8 308.63-11.8 310.38-19.6 308.28-19.6 308.28-27.8 322.78-27.8 322.78-19.6 320.68-19.6 314.33 0 302.18 0 299.43-13.9 298.93-13.9 296.18 0ZM339.08 0.7Q331.98 0.7 327.98-3.03 323.98-6.75 323.98-13.9L323.98-13.9Q323.98-21.05 327.98-24.78 331.98-28.5 339.08-28.5L339.08-28.5Q346.13-28.5 349.25-24.83 352.38-21.15 352.38-15.7L352.38-15.7 352.38-12.1 336.18-12.1 336.18-11.8Q336.18-9.95 337.28-9.08 338.38-8.2 340.93-8.2L340.93-8.2Q343.98-8.2 346.73-8.65 349.48-9.1 351.53-9.8L351.53-9.8 351.53-1.8Q349.78-0.85 346.4-0.08 343.03 0.7 339.08 0.7L339.08 0.7ZM336.18-17.6L341.98-17.6 341.98-18.2Q341.98-19.9 341.25-20.65 340.53-21.4 339.08-21.4L339.08-21.4Q337.63-21.4 336.9-20.63 336.18-19.85 336.18-18.2L336.18-18.2 336.18-17.6ZM375.23-28.5Q376.23-28.5 377.13-28.3 378.03-28.1 378.63-27.8L378.63-27.8 378.63-18.25Q376.58-19.1 374.23-19.1L374.23-19.1Q371.08-19.1 369.38-17.45 367.68-15.8 367.68-12.55L367.68-12.55 367.68-8.2 372.18-8.2 372.18 0 353.98 0 353.98-8.2 356.18-8.2 356.18-19.6 353.98-19.6 353.98-27.8 367.68-27.8 367.68-24.15Q369.08-26.25 370.88-27.38 372.68-28.5 375.23-28.5L375.23-28.5ZM392.92-10.95L382.62-10.95 380.32-36.4 380.32-38.9 395.27-38.9 395.27-36.4 392.92-10.95ZM393.42 0L382.12 0 382.12-8.2 393.42-8.2 393.42 0Z" opacity="1" transform="matrix(1,0,0,1,0,0)" fill="#000000" class="slogan-text-1" data-fill-palette-color="secondary" id="text-1"></path></svg></g></svg></g></svg></g></svg></g><g transform="matrix(1,0,0,1,164.02540432572067,0)"><svg viewBox="0 0 67.46919134855864 50.86034496810903" height="50.86034496810903" width="67.46919134855864"><g><svg xmlns="http://www.w3.org/2000/svg" xmlns:xlink="http://www.w3.org/1999/xlink" version="1.1" x="8" y="0" viewBox="0.16100656900704588 0.5 71.8499370784651 71" enable-background="new 0 0 72 72" xml:space="preserve" id="icon-0" width="51.46919134855864" height="50.86034496810903" class="icon-icon-0" data-fill-palette-color="accent"><g fill="#e21a3b" data-fill-palette-color="accent"><path fill="#000000" d="M37 15.8C35.6 15.2 34.6 14.6 34 14.1 33.5 13.5 33.2 12.7 33.2 11.8 33.2 10.8 33.5 10 34 9.4S35.3 8.5 36.3 8.5 38.1 8.9 38.7 9.7C39.2 10.4 39.5 11.4 39.6 12.7 39.6 12.9 39.8 13.1 40 13.1H44.4C44.7 13.1 44.9 12.9 44.9 12.6V12.5C44.8 10.4 44.2 8.6 43.1 7.2 41.9 5.8 40.3 4.9 38.3 4.6 38.1 4.6 38 4.4 38 4.3V0.8C38 0.6 37.9 0.5 37.7 0.5H35.4C35.2 0.5 35.1 0.6 35.1 0.8V4.1C35.1 4.3 35 4.4 34.8 4.4 32.7 4.7 31 5.4 29.8 6.7 28.5 8 27.8 9.7 27.8 11.7 27.8 13.9 28.5 15.6 29.8 16.8S33.1 19.1 35.8 20.1C37.2 20.6 38.1 21.2 38.7 21.8S39.5 23.2 39.5 24.2 39.2 26 38.6 26.6 37.2 27.5 36.1 27.5 34 27.1 33.2 26.4C32.5 25.7 32.1 24.6 32.1 23.1 32.1 23 32 22.9 31.8 22.9H27.1C27 22.9 26.8 23 26.8 23.2V24C26.9 26.2 27.6 27.9 28.9 29.2 30.3 30.5 32.1 31.3 34.3 31.6 34.4 31.6 34.5 31.7 34.5 31.9V35C34.5 35.2 34.6 35.3 34.8 35.3H37.1C37.3 35.3 37.4 35.2 37.4 35V31.9C37.4 31.8 37.5 31.6 37.6 31.6 39.7 31.3 41.4 30.6 42.7 29.4 44 28.1 44.7 26.4 44.7 24.3 44.7 22.1 44 20.4 42.7 19.2 41.7 18 39.7 16.9 37 15.8" data-fill-palette-color="accent"></path><g fill="#e21a3b" data-fill-palette-color="accent"><circle fill="#000000" cx="55.6" cy="42.7" r="8.7" data-fill-palette-color="accent"></circle><path fill="#000000" d="M40.5 71.5H70.8C71.5 71.5 72.1 70.9 72 70.2 71.3 61.8 64.3 55.1 55.7 55.1S40 61.7 39.4 70.2C39.2 70.9 39.8 71.5 40.5 71.5" data-fill-palette-color="accent"></path><circle fill="#000000" cx="16.4" cy="42.7" r="8.7" data-fill-palette-color="accent"></circle><path fill="#000000" d="M1.3 71.5H31.6C32.3 71.5 32.9 70.9 32.8 70.2 32.1 61.8 25.1 55.1 16.5 55.1S0.8 61.7 0.2 70.2C0 70.9 0.6 71.5 1.3 71.5" data-fill-palette-color="accent"></path></g></g></svg></g></svg></g><g><rect width="164.02540432572067" height="1.7900243020010678" y="48.07032066610797" x="231.4945956742793" fill="#000000" data-fill-palette-color="accent"></rect><rect width="164.02540432572067" height="1.7900243020010678" y="48.07032066610797" x="0" fill="#000000" data-fill-palette-color="accent"></rect><rect width="164.02540432572067" height="1.7900243020010678" y="44.49027206210583" x="231.4945956742793" fill="#000000" data-fill-palette-color="accent"></rect><rect width="164.02540432572067" height="1.7900243020010678" y="44.49027206210583" x="0" fill="#000000" data-fill-palette-color="accent"></rect></g></svg></g><defs></defs></svg><rect width="395.52" height="92.34825868899144" fill="none" stroke="none" visibility="hidden"></rect></g></svg></g></svg>